<svg width="241" height="53" xmlns="http://www.w3.org/2000/svg" xmlns:xlink="http://www.w3.org/1999/xlink" xml:space="preserve" overflow="hidden"><g transform="translate(-752 -490)"><path d="M822.73 495.965C821.731 496.845 820.592 497.684 819.473 498.493 819.795 499.107 820.085 499.737 820.342 500.381 816.227 503.611 811.578 506.096 806.606 507.724 800.966 509.533 795.025 510.212 789.123 509.722L787.475 509.832C787.476 512.698 787.98 515.541 788.963 518.233L789.143 518.703C794.859 518.579 800.523 517.596 805.946 515.786 813.813 513.178 821.021 508.897 827.075 503.238 826.07 500.575 824.598 498.113 822.73 495.965" fill="#E43C2E"/><path d="M802.3 495.416C806.024 494.52 809.626 493.178 813.029 491.42 805.291 488.373 796.474 490.488 790.961 496.715 794.793 496.746 798.614 496.31 802.34 495.416" fill="#9D9D9C"/><path d="M806.606 507.724C799.385 510.039 791.702 510.524 784.248 509.132 784.441 505.197 785.31 501.325 786.815 497.684 792.168 497.837 797.507 497.07 802.6 495.416 806.188 494.25 809.62 492.65 812.819 490.651 816.18 493.135 818.784 496.504 820.342 500.381 816.227 503.611 811.578 506.096 806.606 507.724" fill="#134391"/><path d="M806.945 522.869C802.151 523.763 797.464 525.156 792.959 527.025 802.731 530.521 813.629 528.479 821.471 521.68 816.601 521.569 811.732 521.967 806.945 522.869" fill="#F6A118"/><path d="M808.044 514.537C814.247 512.731 820.117 509.934 825.427 506.255 825.912 509.983 825.409 513.772 823.968 517.244 819.762 519.766 815.25 521.737 810.542 523.108 804.276 524.95 797.741 525.703 791.221 525.336 788.413 523.017 786.235 520.028 784.887 516.645 792.67 517.461 800.537 516.744 808.044 514.537" fill="#3AAA35"/><path d="M803.429 495.136C806.764 494.263 809.993 493.027 813.059 491.45 812.74 491.32 812.41 491.21 812.06 491.1 809.323 492.729 806.424 494.068 803.409 495.096" fill="#3C3C3B"/><path d="M789.123 509.752C795.025 510.242 800.966 509.563 806.606 507.754 811.578 506.126 816.227 503.641 820.342 500.411 820.085 499.767 819.795 499.137 819.473 498.523 814.484 502.136 808.972 504.966 803.129 506.915 798.598 508.423 793.902 509.386 789.143 509.782" fill="#3C3C3B"/><path d="M813.589 512.619C811.775 513.354 809.924 513.994 808.044 514.537 801.719 516.396 795.13 517.2 788.544 516.915 788.683 517.354 788.823 517.794 788.983 518.233L789.163 518.703C794.872 518.58 800.53 517.596 805.946 515.786 808.565 514.92 811.116 513.861 813.579 512.619" fill="#3C3C3B"/><path d="M797.435 525.346C801.876 525.113 806.275 524.362 810.542 523.108 811.81 522.739 813.049 522.329 814.268 521.89 811.811 522.091 809.366 522.424 806.945 522.889 803.721 523.493 800.544 524.32 797.435 525.366" fill="#3C3C3B"/><path d="M768.554 500.96 778.544 500.96 777.625 495.186 768.554 495.186C762.899 495.186 758.823 496.435 756.086 499.052 753.349 501.67 752 505.456 752 510.781 752 516.105 753.339 519.962 756.086 522.549 758.833 525.136 762.899 526.385 768.554 526.385L777.625 526.385 778.544 520.611 768.554 520.611C761.79 520.611 758.643 517.484 758.643 510.781 758.643 504.077 761.79 500.96 768.554 500.96" fill="#134391"/><path d="M850.252 509.822 838.294 495.186 833.309 495.186 833.309 526.385 839.473 526.385 839.473 505.816 848.064 516.235 852.35 516.235 860.942 505.816 860.942 526.385 867.155 526.385 867.155 495.186 862.16 495.186 850.252 509.822Z" fill="#134391"/><path d="M880.642 500.96 888.474 500.96C893.379 500.96 895.567 502.559 895.567 506.145 895.567 509.732 893.379 511.37 888.474 511.37L880.642 511.37ZM888.864 495.186 874.178 495.186 874.178 526.385 880.682 526.385 880.682 517.144 888.864 517.144C897.395 517.144 902.29 513.148 902.29 506.155 902.29 499.162 897.395 495.166 888.864 495.166" fill="#134391"/><path d="M913.189 513.278 928.414 513.278 928.414 507.684 913.189 507.684 913.189 500.96 931.861 500.96 931.002 495.186 906.636 495.186 906.636 526.385 931.391 526.385 932.26 520.611 913.189 520.611 913.189 513.278Z" fill="#134391"/><path d="M933.969 500.96 945.597 500.96 945.597 526.385 952.151 526.385 952.151 500.96 963.779 500.96 963.779 495.186 933.969 495.186 933.969 500.96Z" fill="#134391"/><path d="M967.375 495.186 967.375 526.385 992.141 526.385 993 520.611 973.929 520.611 973.929 513.278 989.164 513.278 989.164 507.684 973.929 507.684 973.929 500.96 992.61 500.96 991.751 495.186 967.375 495.186Z" fill="#134391"/><path d="M942.81 540.631C942.81 537.944 944.099 537.124 946.806 536.355L948.644 535.816C950.432 535.266 951.282 534.707 951.282 533.488 951.282 532.269 950.522 531.58 948.594 531.58L943.549 531.58 943.759 530.231 948.684 530.231C951.531 530.231 952.84 531.43 952.84 533.508 952.84 535.586 951.581 536.355 949.054 537.104L947.246 537.644C945.427 538.213 944.408 538.643 944.408 540.351L944.408 541.42 953.1 541.42 952.8 542.759 942.81 542.759Z" fill="#9D9D9C"/><path d="M965.507 536.495C965.507 533.009 964.039 531.43 961.022 531.43 958.005 531.43 956.526 533.009 956.526 536.495 956.526 539.982 957.995 541.56 961.022 541.56 964.049 541.56 965.507 539.992 965.507 536.495M954.968 536.495C954.968 532.109 956.966 530.052 961.022 530.052 965.078 530.052 967.066 532.109 967.066 536.495 967.066 540.881 965.068 542.939 961.022 542.939 956.976 542.939 954.968 540.881 954.968 536.495" fill="#9D9D9C"/><path d="M968.464 541.37 973.999 541.37C975.927 541.37 976.766 540.601 976.766 539.232 976.766 538.054 976.017 536.985 974.189 536.985L971.611 536.985 971.611 535.676 974.159 535.676C975.256 535.8 976.245 535.011 976.369 533.915 976.382 533.796 976.385 533.677 976.377 533.558 976.377 532.259 975.567 531.56 973.639 531.56L968.784 531.56 968.994 530.211 973.779 530.211C976.606 530.211 977.955 531.39 977.955 533.348 977.98 534.563 977.293 535.68 976.197 536.205 977.556 536.647 978.442 537.956 978.345 539.382 978.345 541.44 976.986 542.689 974.139 542.689L968.694 542.689Z" fill="#9D9D9C"/><path d="M990.962 536.495C990.962 533.009 989.493 531.43 986.466 531.43 983.44 531.43 981.981 533.009 981.981 536.495 981.981 539.982 983.45 541.56 986.466 541.56 989.484 541.56 990.962 539.992 990.962 536.495M980.422 536.495C980.422 532.109 982.421 530.052 986.417 530.052 990.413 530.052 992.471 532.109 992.471 536.495 992.471 540.881 990.473 542.939 986.417 542.939 982.361 542.939 980.422 540.881 980.422 536.495" fill="#9D9D9C"/></g></svg>